<?xml version="1.0" encoding="UTF-8" standalone="no"?>
<!-- Created with Inkscape (http://www.inkscape.org/) -->

<svg
   width="181.18477mm"
   height="29.703182mm"
   viewBox="0 0 181.18477 29.703182"
   version="1.1"
   id="svg5"
   xml:space="preserve"
   xmlns="http://www.w3.org/2000/svg"
   xmlns:svg="http://www.w3.org/2000/svg"><defs
     id="defs2"><clipPath
       clipPathUnits="userSpaceOnUse"
       id="clipPath750"><path
         d="M 0,841.89 H 1190.551 V 0 H 0 Z"
         id="path748" /></clipPath></defs><g
     id="layer1"
     transform="translate(-19.666163,-44.191744)"><g
       id="g740"
       transform="matrix(0.35277777,0,0,-0.35277777,-72.888779,262.56076)"><g
         id="g744"><g
           id="g746"
           clip-path="url(#clipPath750)"><g
             id="g1048"
             transform="translate(599.0645,548.215)"><path
               d="M 0,0 Z"
               style="fill:#070010;fill-opacity:1;fill-rule:nonzero;stroke:none"
               id="path1050" /></g><g
             id="g1052"
             transform="translate(599.0645,548.215)"><path
               d="M 0,0 Z"
               style="fill:#070010;fill-opacity:1;fill-rule:nonzero;stroke:none"
               id="path1054" /></g><g
             id="g1056"
             transform="translate(321.022,562.6486)"><path
               d="M 0,0 5.301,36.906 H -5.001 L -11.433,-8.191 H 15.729 L 16.86,0 Z"
               style="fill:#070010;fill-opacity:1;fill-rule:nonzero;stroke:none"
               id="path1058" /></g><g
             id="g1060"
             transform="translate(352.3252,599.5543)"><path
               d="M 0,0 -6.432,-45.097 H 3.87 L 10.302,0 Z"
               style="fill:#070010;fill-opacity:1;fill-rule:nonzero;stroke:none"
               id="path1062" /></g><g
             id="g1064"
             transform="translate(401.2549,599.5543)"><path
               d="M 0,0 -14.843,-31.922 -19.745,0 h -10.089 l 8.488,-45.097 h 9.276 L 10.085,0 Z"
               style="fill:#070010;fill-opacity:1;fill-rule:nonzero;stroke:none"
               id="path1066" /></g><g
             id="g1068"
             transform="translate(579.25,571.1559)"><path
               d="M 0,0 18.661,28.596 H 7.491 L -3.93,10.319 -10.089,28.596 h -10.509 l 10.382,-27.121 -2.563,-17.976 h 10.302 l 2.409,16.392 z"
               style="fill:#070010;fill-opacity:1;fill-rule:nonzero;stroke:none"
               id="path1070" /></g><g
             id="g1072"
             transform="translate(627.4531,577.1168)"><path
               d="m 0,0 c -1.599,-11.208 -5.106,-15.755 -11.726,-15.755 -2.557,0 -4.401,1.044 -5.694,2.534 -2.099,2.42 -2.633,6.277 -1.626,13.331 l 0.008,0.062 c 1.565,10.711 5.001,15.781 11.621,15.781 2.555,0 4.527,-0.753 5.818,-2.24 C 0.504,11.289 1.012,7.095 0,0 M 7.119,18.372 C 4.255,21.573 -0.37,23.744 -6.048,23.805 -20.07,23.956 -27.45,15.41 -29.603,0.324 l -0.008,-0.063 c -1.157,-8.105 0.254,-14.445 3.743,-18.478 2.828,-3.269 7.273,-5.143 12.879,-5.414 13.98,-0.679 22.044,8.446 23.751,23.786 0.947,8.514 -0.083,14.239 -3.643,18.217"
               style="fill:#070010;fill-opacity:1;fill-rule:nonzero;stroke:none"
               id="path1074" /></g><g
             id="g1076"
             transform="translate(292.2187,576.9987)"><path
               d="m 0,0 c -1.59,-11.152 -5.081,-15.677 -11.667,-15.677 -2.544,0 -4.379,1.039 -5.666,2.522 -2.088,2.408 -2.62,6.246 -1.618,13.265 l 0.008,0.061 c 1.557,10.659 4.976,15.703 11.563,15.703 2.542,0 4.505,-0.749 5.79,-2.229 C 0.502,11.233 1.007,7.06 0,0 m 7.083,18.28 c -2.85,3.185 -7.452,5.345 -13.101,5.406 -13.952,0.15 -21.295,-8.353 -23.437,-23.364 L -29.464,0.26 c -1.15,-8.065 0.253,-14.373 3.725,-18.386 2.814,-3.253 7.237,-5.117 12.815,-5.388 13.91,-0.674 21.934,8.406 23.632,23.668 0.943,8.472 -0.083,14.168 -3.625,18.126"
               style="fill:#070010;fill-opacity:1;fill-rule:nonzero;stroke:none"
               id="path1078" /></g><g
             id="g1080"
             transform="translate(722.0576,599.7516)"><path
               d="M 0,0 -4.266,-30.785 -15.525,0 h -10.661 l -6.431,-45.097 h 9.513 l 4.718,31.752 11.426,-31.752 H 3.072 L 9.504,0 Z"
               style="fill:#070010;fill-opacity:1;fill-rule:nonzero;stroke:none"
               id="path1082" /></g><g
             id="g1084"
             transform="translate(774.6211,569.5944)"><path
               d="m 0,0 c -1.331,-9.083 -8.248,-17.038 -21.048,-16.209 -6.109,0.396 -10.109,2.787 -12.925,6.622 -2.74,3.732 -4.296,9.914 -2.931,18.174 2.796,16.939 11.256,23.079 23.006,22.567 8.093,-0.352 12.745,-4.175 15.232,-11.386 L -7.444,16.85 c -0.651,2.285 -2.619,6.319 -7.471,6.72 -6.634,0.549 -10.714,-5.162 -12.258,-15.991 -0.905,-6.342 -1.418,-14.714 6.694,-15.654 5.572,-0.646 9.793,1.805 11.708,8.838 0.314,1.155 0.346,1.816 0.346,1.816 h -9.783 l 1.104,7.672 18.19,0.019 C 1.146,10.005 0.571,3.9 0,0"
               style="fill:#070010;fill-opacity:1;fill-rule:nonzero;stroke:none"
               id="path1086" /></g><g
             id="g1088"
             transform="translate(419.915,599.5543)"><path
               d="m 0,0 -6.432,-45.097 h 27.884 l 1.075,7.547 H 4.946 l 1.886,12.351 h 15.803 l 0.965,7.626 H 7.796 l 1.43,10.027 H 25.862 L 26.938,0 Z"
               style="fill:#070010;fill-opacity:1;fill-rule:nonzero;stroke:none"
               id="path1090" /></g><g
             id="g1092"
             transform="translate(674.9131,599.588)"><path
               d="m 0,0 -3.922,-27.768 c -1.023,-5.686 -1.071,-7.279 -3.619,-9.397 -2.414,-2.005 -7.648,-1.842 -10.225,0.78 -2.033,2.069 -1.243,6.339 -0.69,10.718 L -15.187,0 h -10.301 l -3.724,-28.88 c -0.995,-7.578 1.641,-11.683 6.633,-14.873 3.979,-2.543 9.48,-2.903 13.037,-2.418 6.314,0.861 10.478,3.35 12.917,7.56 1.503,2.593 2.201,5.215 2.871,9.76 L 10.301,0 Z"
               style="fill:#070010;fill-opacity:1;fill-rule:nonzero;stroke:none"
               id="path1094" /></g><g
             id="g1096"
             transform="translate(526.3701,571.7858)"><path
               d="m 0,0 c -4.603,-19.936 -18.251,-33.808 -30.484,-30.983 -12.234,2.824 -18.42,21.275 -13.817,41.211 4.602,19.936 18.251,33.808 30.484,30.983 C -1.583,38.387 4.603,19.936 0,0 m -22.151,47.213 c -23.25,0 -42.099,-18.848 -42.099,-42.099 0,-23.25 18.849,-42.099 42.099,-42.099 23.251,0 42.099,18.849 42.099,42.099 0,23.251 -18.848,42.099 -42.099,42.099"
               style="fill:#a7ce49;fill-opacity:1;fill-rule:nonzero;stroke:none"
               id="path1098" /></g><g
             id="g1100"
             transform="translate(517,596.6007)"><path
               d="m 0,0 c -1.402,-6.027 -6.028,-10.088 -10.334,-9.094 -4.31,0.997 -6.668,6.684 -5.289,12.702 1.399,6.004 6.014,10.07 10.32,9.079 C -0.982,11.688 1.385,6.009 0,0"
               style="fill:#ee7d6d;fill-opacity:1;fill-rule:nonzero;stroke:none"
               id="path1102" /></g></g></g></g></g></svg>
