<svg width="380" height="352" xmlns="http://www.w3.org/2000/svg" xmlns:xlink="http://www.w3.org/1999/xlink"><svg width="43" height="43" fill="none" viewBox="-4 -4 43 43" id="ico_arrow1" x="50" y="233" xmlns="http://www.w3.org/2000/svg"><path fill-rule="evenodd" clip-rule="evenodd" d="M28.1 15.375L8.84 34.648.352 26.166 19.616 6.89 14.06 1.334 34.995-.005 33.656 20.93l-5.555-5.555z" fill="url(#aapaint0_linear_1374_12740)" fill-opacity=".4"/><defs><linearGradient id="aapaint0_linear_1374_12740" x1="4.292" y1="31.198" x2="34.792" y2="-.302" gradientUnits="userSpaceOnUse"><stop stop-color="#F6F7F9"/><stop offset="1" stop-color="#168350"/></linearGradient></defs></svg><svg width="43" height="43" fill="none" viewBox="-4 -4 43 43" id="ico_arrow2" x="93" y="233" xmlns="http://www.w3.org/2000/svg"><path fill-rule="evenodd" clip-rule="evenodd" d="M19.625 27.749L.352 8.489l8.482-8.49 19.277 19.264 5.555-5.556 1.339 20.935-20.935-1.339 5.555-5.555z" fill="url(#abpaint0_linear_1374_12743)" fill-opacity=".4"/><defs><linearGradient id="abpaint0_linear_1374_12743" x1="3.802" y1="3.94" x2="35.302" y2="34.44" gradientUnits="userSpaceOnUse"><stop stop-color="#F6F7F9"/><stop offset="1" stop-color="#168350"/></linearGradient></defs></svg><svg width="28" height="26" fill="none" viewBox="-4 -4 28 26" id="ico_arrow_next" x="233" y="118" xmlns="http://www.w3.org/2000/svg"><path d="M.457 10.355h9.771c2.729 0 3.835-.995 6.02-.995v.106c-4.222 1.777-5.54 3.755-6.923 6.05l2.461 2.285c2.065-4.474 3.955-6.251 7.55-7.933V8.165c-3.595-1.67-5.485-3.448-7.55-7.964L9.334 2.528c1.383 2.284 2.701 4.273 6.923 6.05v.105c-2.185 0-3.263-.994-6.02-.994H.458v2.665z" fill="#000"/></svg><svg width="28" height="26" fill="none" viewBox="-4 -4 28 26" id="ico_arrow_next_disabled" x="93" y="320" xmlns="http://www.w3.org/2000/svg"><path d="M.457 10.355h9.771c2.729 0 3.835-.995 6.02-.995v.106c-4.222 1.777-5.54 3.755-6.923 6.05l2.461 2.285c2.065-4.474 3.955-6.251 7.55-7.933V8.165c-3.595-1.67-5.485-3.448-7.55-7.964L9.334 2.528c1.383 2.284 2.701 4.273 6.923 6.05v.105c-2.185 0-3.263-.994-6.02-.994H.458v2.665z" fill="#C9CDD1"/></svg><svg width="28" height="26" fill="none" viewBox="-4 -4 28 26" id="ico_arrow_next_hover" x="121" y="320" xmlns="http://www.w3.org/2000/svg"><path d="M.457 10.355h9.771c2.729 0 3.835-.995 6.02-.995v.106c-4.222 1.777-5.54 3.755-6.923 6.05l2.461 2.285c2.065-4.474 3.955-6.251 7.55-7.933V8.165c-3.595-1.67-5.485-3.448-7.55-7.964L9.334 2.528c1.383 2.284 2.701 4.273 6.923 6.05v.105c-2.185 0-3.263-.994-6.02-.994H.458v2.665z" fill="#fff"/></svg><svg width="28" height="26" fill="none" viewBox="-4 -4 28 26" id="ico_arrow_prev" x="149" y="320" xmlns="http://www.w3.org/2000/svg"><path d="M19.738 7.645h-9.77c-2.73 0-3.836.995-6.02.995v-.106c4.222-1.777 5.54-3.755 6.922-6.05L8.41.199C6.343 4.673 4.454 6.45.86 8.132v1.703c3.595 1.67 5.484 3.448 7.55 7.964l2.451-2.327c-1.383-2.284-2.7-4.273-6.923-6.05v-.105c2.185 0 3.264.994 6.02.994h9.78V7.646z" fill="#000"/></svg><svg width="28" height="26" fill="none" viewBox="-4 -4 28 26" id="ico_arrow_prev_disabled" x="177" y="320" xmlns="http://www.w3.org/2000/svg"><path d="M19.738 7.645h-9.77c-2.73 0-3.836.995-6.02.995v-.106c4.222-1.777 5.54-3.755 6.922-6.05L8.41.199C6.343 4.673 4.454 6.45.86 8.132v1.703c3.595 1.67 5.484 3.448 7.55 7.964l2.451-2.327c-1.383-2.284-2.7-4.273-6.923-6.05v-.105c2.185 0 3.264.994 6.02.994h9.78V7.646z" fill="#C9CDD1"/></svg><svg width="28" height="26" fill="none" viewBox="-4 -4 28 26" id="ico_arrow_prev_hover" x="205" y="320" xmlns="http://www.w3.org/2000/svg"><path d="M19.738 7.645h-9.77c-2.73 0-3.836.995-6.02.995v-.106c4.222-1.777 5.54-3.755 6.922-6.05L8.41.199C6.343 4.673 4.454 6.45.86 8.132v1.703c3.595 1.67 5.484 3.448 7.55 7.964l2.451-2.327c-1.383-2.284-2.7-4.273-6.923-6.05v-.105c2.185 0 3.264.994 6.02.994h9.78V7.646z" fill="#fff"/></svg><svg width="20" height="20" fill="none" viewBox="-4 -4 20 20" id="ico_arrow_right" x="233" y="320" xmlns="http://www.w3.org/2000/svg"><mask id="aia" style="mask-type:alpha" maskUnits="userSpaceOnUse" x="0" y="0" width="12" height="12"><path transform="rotate(-90 0 12)" fill="red" d="M0 12h12v12H0z"/></mask><g mask="url(#aia)"><path d="M9.174 5.989a.649.649 0 01-.052.26.725.725 0 01-.18.238l-5.1 4.7a.773.773 0 01-.542.213.773.773 0 01-.54-.213.67.67 0 01-.233-.51.67.67 0 01.232-.51l4.534-4.178L2.759 1.81a.658.658 0 01-.232-.499c0-.19.078-.356.232-.498A.79.79 0 013.313.6c.215 0 .4.072.554.214L8.942 5.49c.086.08.146.158.18.237.034.08.052.167.052.262z" fill="#000"/></g></svg><svg width="22" height="22" fill="none" viewBox="-4 -4 22 22" id="ico_arrow_right_black" x="352" y="326" xmlns="http://www.w3.org/2000/svg"><path d="M4.681 12.833l-1.035-1.036L8.444 7 3.646 2.201l1.035-1.035 5.834 5.833-5.834 5.834z" fill="#000"/></svg><svg width="88" height="88" fill="none" viewBox="-4 -4 88 88" id="ico_behavior_rules1" xmlns="http://www.w3.org/2000/svg"><g clip-path="url(#akclip0_1374_12672)"><path d="M38.402 27.5c1.155-2 4.041-2 5.196 0l22.517 39c1.154 2-.289 4.5-2.598 4.5H18.483c-2.31 0-3.752-2.5-2.598-4.5l22.517-39z" fill="#82DC27"/><path d="M65 35.5C65 49.067 54.22 60 41 60S17 49.067 17 35.5 27.78 11 41 11s24 10.933 24 24.5z" stroke="#000" stroke-width="4"/></g><defs><clipPath id="akclip0_1374_12672"><path fill="#fff" d="M0 0h80v80H0z"/></clipPath></defs></svg><svg width="88" height="88" fill="none" viewBox="-4 -4 88 88" id="ico_behavior_rules2" x="88" xmlns="http://www.w3.org/2000/svg"><g clip-path="url(#alclip0_1374_12685)"><path d="M41.88 56.488a3 3 0 01-3.76 0l-27.855-22.4c-2.207-1.775-.952-5.338 1.88-5.338h55.71c2.832 0 4.087 3.563 1.88 5.338l-27.855 22.4z" fill="#82DC27"/><path d="M44.615 13.877c-1.709-4.103-7.521-4.103-9.23 0L16.573 59.025c-1.84 4.418 2.98 8.649 7.122 6.25l15.804-9.156a1 1 0 011.002 0l15.804 9.155c4.142 2.4 8.963-1.831 7.122-6.25L44.615 13.878z" stroke="#000" stroke-width="4"/></g><defs><clipPath id="alclip0_1374_12685"><path fill="#fff" d="M0 0h80v80H0z"/></clipPath></defs></svg><svg width="88" height="88" fill="none" viewBox="-4 -4 88 88" id="ico_behavior_rules3" y="88" xmlns="http://www.w3.org/2000/svg"><path d="M65 41a4 4 0 014 4v20c0 5.523-4.477 10-10 10H21c-5.523 0-10-4.477-10-10V45a4 4 0 014-4h50z" fill="#82DC27"/><rect x="18" y="14" width="44" height="54" rx="6" stroke="#000" stroke-width="4"/><path fill="#000" d="M31 27h6v6h-6zm12 0h6v6h-6zM31 39h6v6h-6zm12 0h6v6h-6z"/></svg><svg width="88" height="88" fill="none" viewBox="-4 -4 88 88" id="ico_behavior_rules4" x="88" y="88" xmlns="http://www.w3.org/2000/svg"><circle cx="46" cy="40" r="26" fill="#82DC28"/><circle cx="34" cy="40" r="24" stroke="#000" stroke-width="4"/></svg><svg width="88" height="88" fill="none" viewBox="-4 -4 88 88" id="ico_behavior_rules5" x="176" xmlns="http://www.w3.org/2000/svg"><g clip-path="url(#aoclip0_1374_12663)"><path d="M12.038 38c-2.239 0-4.05 1.84-3.787 4.063.406 3.433 1.228 7.114 2.447 9.907a33.266 33.266 0 007.318 10.555 33.467 33.467 0 0010.786 7.021 33.248 33.248 0 0012.612 2.42 32.736 32.736 0 0012.517-2.55 32.231 32.231 0 0010.517-7.134 32.033 32.033 0 006.916-10.629c1.121-2.826 1.834-6.376 2.122-9.734C73.672 39.748 71.88 38 69.7 38H12.038z" fill="#7BD908"/><circle cx="41.336" cy="37.652" r="26" transform="rotate(90 41.336 37.652)" stroke="#000" stroke-width="4"/><path fill="#000" d="M32 29h6v6h-6zm12 0h6v6h-6zM32 41h6v6h-6zm12 0h6v6h-6z"/></g><defs><clipPath id="aoclip0_1374_12663"><path fill="#fff" transform="rotate(90 40 40)" d="M0 0h80v80H0z"/></clipPath></defs></svg><svg width="16" height="16" fill="none" viewBox="-4 -4 16 16" id="ico_blank" x="285" y="214" xmlns="http://www.w3.org/2000/svg"><mask id="apa" style="mask-type:alpha" maskUnits="userSpaceOnUse" x="0" y="0" width="8" height="8"><path fill="red" d="M0 0h8v8H0z"/></mask><g mask="url(#apa)"><path d="M5.653 1.545H1.302a.554.554 0 01-.408-.165.554.554 0 01-.165-.408.554.554 0 01.165-.407A.554.554 0 011.302.4h5.726a.55.55 0 01.407.165c.11.11.165.245.165.407v5.726a.554.554 0 01-.165.408.554.554 0 01-.407.165.554.554 0 01-.408-.165.554.554 0 01-.165-.408V2.347L1.359 7.442a.543.543 0 01-.4.158.543.543 0 01-.401-.158.543.543 0 01-.158-.4c0-.163.053-.296.158-.401l5.095-5.096z" fill="#747D86"/></g></svg><svg width="56" height="56" fill="none" viewBox="-4 -4 56 56" id="ico_btn_top" x="57" y="176" xmlns="http://www.w3.org/2000/svg"><path d="M25.123 31.103v-7.817c0-2.183-.795-3.068-.795-4.816h.084c1.422 3.378 3.004 4.433 4.84 5.539l1.828-1.97c-3.58-1.651-5-3.163-6.346-6.039H23.37c-1.336 2.876-2.758 4.388-6.371 6.04L18.861 24c1.828-1.106 3.419-2.16 4.84-5.538h.085c0 1.748-.795 2.61-.795 4.816v7.824h2.132z" fill="#000"/></svg><svg width="56" height="56" fill="none" viewBox="-4 -4 56 56" id="ico_btn_top_white" x="113" y="176" xmlns="http://www.w3.org/2000/svg"><path d="M25.123 31.103v-7.817c0-2.183-.795-3.068-.795-4.816h.084c1.422 3.378 3.004 4.433 4.84 5.539l1.828-1.97c-3.58-1.651-5-3.163-6.346-6.039H23.37c-1.336 2.876-2.758 4.388-6.371 6.04L18.861 24c1.828-1.106 3.419-2.16 4.84-5.538h.085c0 1.748-.795 2.61-.795 4.816v7.824h2.132z" fill="#fff"/></svg><svg width="28" height="28" fill="none" viewBox="-4 -4 28 28" id="ico_check_checked" x="352" xmlns="http://www.w3.org/2000/svg"><circle cx="10" cy="10" r="10" fill="#7BD908"/><path d="M8.997 14.5L5.5 10.708l.874-.948 2.623 2.844L14.626 6.5l.874.948L8.997 14.5z" fill="#fff"/></svg><svg width="40" height="40" fill="none" viewBox="-4 -4 40 40" id="ico_circle_arrow_right" x="136" y="233" xmlns="http://www.w3.org/2000/svg"><circle cx="16" cy="16" r="16" fill="#E5E7EA"/><path d="M14.681 21.833l-1.035-1.036L18.444 16l-4.798-4.798 1.035-1.035L20.515 16l-5.834 5.834z" fill="#000"/></svg><svg width="50" height="50" fill="none" viewBox="-4 -4 50 50" id="ico_circle_outlink" y="233" xmlns="http://www.w3.org/2000/svg"><circle cx="21" cy="21" r="20" stroke="#fff" stroke-width="2"/><path d="M23.815 17.326H17.47a.833.833 0 01-.595-.227.74.74 0 01-.24-.561c0-.223.08-.41.24-.562a.833.833 0 01.595-.226h8.35c.237 0 .435.075.595.226a.74.74 0 01.24.562v7.88a.74.74 0 01-.24.56.833.833 0 01-.595.227.833.833 0 01-.595-.226.74.74 0 01-.24-.562V18.43l-7.431 7.013a.818.818 0 01-.585.216.818.818 0 01-.584-.216.725.725 0 01-.23-.552c0-.223.077-.407.23-.552l7.431-7.012z" fill="#fff"/></svg><svg width="32" height="32" fill="none" viewBox="-4 -4 32 32" id="ico_close_circle" x="37" y="283" xmlns="http://www.w3.org/2000/svg"><circle cx="12" cy="12" r="12" fill="#D9D9D9"/><path d="M8 15.907l4-3.954-4 3.954zM16 8l-4 3.953L16 8zm-4 3.953L8 8l4 3.953zm0 0l4 3.954-4-3.954z" fill="#D9D9D9"/><path d="M8 15.907l4-3.954m0 0L16 8m-4 3.953L8 8m4 3.953l4 3.954" stroke="#fff" stroke-width="2" stroke-linecap="square"/></svg><svg width="21" height="16" fill="none" viewBox="-4 -4 21 16" id="ico_common_familysite" x="264" y="214" xmlns="http://www.w3.org/2000/svg"><path d="M0 1.206L1.154 0 6.5 5.588 11.846 0 13 1.206 6.5 8 0 1.206z" fill="#000"/></svg><svg width="32" height="32" fill="none" viewBox="-4 -4 32 32" id="ico_copy" x="69" y="283" xmlns="http://www.w3.org/2000/svg"><g clip-path="url(#axclip0_2908_23856)"><mask id="axa" style="mask-type:alpha" maskUnits="userSpaceOnUse" x="-1" y="-1" width="26" height="26"><path fill="#D9D9D9" d="M-1-1h26v26H-1z"/></mask><g mask="url(#axa)"><path d="M13 16c-.55 0-1.02-.196-1.412-.588A1.926 1.926 0 0111 14V2c0-.55.196-1.02.588-1.413A1.926 1.926 0 0113 0h9c.55 0 1.02.196 1.413.588C23.803.979 24 1.45 24 2v12c0 .55-.196 1.02-.587 1.412A1.926 1.926 0 0122 16h-9zm0-2h9V2h-9v12zm-4 6c-.55 0-1.02-.196-1.412-.587A1.926 1.926 0 017 18V4h2v14h11v2H9z" fill="#000"/></g></g><defs><clipPath id="axclip0_2908_23856"><path fill="#fff" d="M0 0h24v24H0z"/></clipPath></defs></svg><svg width="38" height="38" fill="none" viewBox="-4 -4 38 38" id="ico_copy_link" x="225" y="176" xmlns="http://www.w3.org/2000/svg"><circle cx="15" cy="15" r="15" fill="#F6F7F9"/><path d="M18.173 22.212c-.6 0-1.111-.21-1.532-.631a2.086 2.086 0 01-.631-1.533c0-.084.006-.171.018-.261.012-.09.03-.172.054-.244l-5.084-2.956c-.204.18-.433.321-.685.423a2.094 2.094 0 01-.794.153c-.6 0-1.111-.21-1.532-.63A2.086 2.086 0 017.356 15c0-.6.21-1.112.631-1.532.42-.421.931-.631 1.532-.631.277 0 .541.05.794.153.252.102.48.243.685.424l5.084-2.957a1.337 1.337 0 01-.054-.244 1.982 1.982 0 01-.018-.261c0-.601.21-1.112.63-1.533a2.09 2.09 0 011.533-.63c.601 0 1.112.21 1.533.63.42.421.63.932.63 1.533 0 .6-.21 1.112-.63 1.532a2.087 2.087 0 01-1.533.631c-.276 0-.54-.05-.793-.153a2.375 2.375 0 01-.685-.423l-5.084 2.956c.024.072.042.154.054.244a1.981 1.981 0 010 .522c-.012.09-.03.172-.054.244l5.084 2.957a2.38 2.38 0 01.685-.424c.252-.102.517-.153.793-.153.601 0 1.112.21 1.533.63.42.421.63.932.63 1.533a2.09 2.09 0 01-.63 1.533 2.09 2.09 0 01-1.533.63zm0-11.539a.697.697 0 00.514-.207.698.698 0 00.207-.514.698.698 0 00-.207-.514.698.698 0 00-.514-.207.698.698 0 00-.514.207.698.698 0 00-.207.514c0 .204.07.376.207.514a.7.7 0 00.514.207zM9.52 15.721a.697.697 0 00.514-.207.697.697 0 00.208-.514.697.697 0 00-.208-.514.698.698 0 00-.514-.207.698.698 0 00-.513.207.698.698 0 00-.208.514.7.7 0 00.208.514c.138.138.31.207.513.207zm8.654 5.048a.697.697 0 00.514-.207.698.698 0 00.207-.514.698.698 0 00-.207-.514.698.698 0 00-.514-.207.698.698 0 00-.514.207.698.698 0 00-.207.514c0 .204.07.376.207.514a.7.7 0 00.514.207z" fill="gray" stroke="gray" stroke-width=".4"/><circle cx="9.461" cy="15" r="1.154" fill="#F6F7F9"/><circle cx="18.23" cy="9.923" r="1.154" fill="#F6F7F9"/><circle cx="18.277" cy="20.077" r="1.154" fill="#F6F7F9"/></svg><svg width="38" height="38" fill="none" viewBox="-4 -4 38 38" id="ico_copy_link_active" x="256" y="233" xmlns="http://www.w3.org/2000/svg"><circle cx="15" cy="15" r="15" fill="#82DC27"/><path d="M18.173 22.212c-.6 0-1.111-.21-1.532-.631a2.086 2.086 0 01-.631-1.533c0-.084.006-.171.018-.261.012-.09.03-.172.054-.244l-5.084-2.956c-.204.18-.433.321-.685.423a2.094 2.094 0 01-.794.153c-.6 0-1.111-.21-1.532-.63A2.086 2.086 0 017.356 15c0-.6.21-1.112.631-1.532.42-.421.931-.631 1.532-.631.277 0 .541.05.794.153.252.102.48.243.685.424l5.084-2.957a1.337 1.337 0 01-.054-.244 1.982 1.982 0 01-.018-.261c0-.601.21-1.112.63-1.533a2.09 2.09 0 011.533-.63c.601 0 1.112.21 1.533.63.42.421.63.932.63 1.533 0 .6-.21 1.112-.63 1.532a2.087 2.087 0 01-1.533.631c-.276 0-.54-.05-.793-.153a2.375 2.375 0 01-.685-.423l-5.084 2.956c.024.072.042.154.054.244a1.981 1.981 0 010 .522c-.012.09-.03.172-.054.244l5.084 2.957a2.38 2.38 0 01.685-.424c.252-.102.517-.153.793-.153.601 0 1.112.21 1.533.63.42.421.63.932.63 1.533a2.09 2.09 0 01-.63 1.533 2.09 2.09 0 01-1.533.63zm0-11.539a.697.697 0 00.514-.207.698.698 0 00.207-.514.698.698 0 00-.207-.514.698.698 0 00-.514-.207.698.698 0 00-.514.207.698.698 0 00-.207.514c0 .204.07.376.207.514a.7.7 0 00.514.207zM9.52 15.721a.697.697 0 00.514-.207.697.697 0 00.208-.514.697.697 0 00-.208-.514.698.698 0 00-.514-.207.698.698 0 00-.513.207.698.698 0 00-.208.514.7.7 0 00.208.514c.138.138.31.207.513.207zm8.654 5.048a.697.697 0 00.514-.207.698.698 0 00.207-.514.698.698 0 00-.207-.514.698.698 0 00-.514-.207.698.698 0 00-.514.207.698.698 0 00-.207.514c0 .204.07.376.207.514a.7.7 0 00.514.207z" fill="#000" stroke="#000" stroke-width=".4"/><circle cx="9.461" cy="15" r="1.154" fill="#82DC27"/><circle cx="18.23" cy="9.923" r="1.154" fill="#82DC27"/><circle cx="18.277" cy="20.077" r="1.154" fill="#82DC27"/></svg><svg width="32" height="32" fill="none" viewBox="-4 -4 32 32" id="ico_download" x="101" y="283" xmlns="http://www.w3.org/2000/svg"><path d="M13 12.15l1.875-1.875a.93.93 0 01.713-.287c.275.008.512.112.712.312.183.2.28.433.287.7a.916.916 0 01-.287.7l-3.6 3.6c-.1.1-.208.17-.325.212a1.106 1.106 0 01-.375.063c-.133 0-.258-.02-.375-.063a.877.877 0 01-.325-.212l-3.6-3.6a.916.916 0 01-.288-.7 1.022 1.022 0 011-1.013.93.93 0 01.713.288L11 12.15V5c0-.283.096-.52.287-.713A.968.968 0 0112 4c.283 0 .52.096.713.287.191.192.287.43.287.713v7.15zM20 16v2c0 .55-.196 1.02-.587 1.413A1.926 1.926 0 0118 20H6c-.55 0-1.02-.196-1.412-.587A1.926 1.926 0 014 18v-2c0-.283.096-.52.287-.713A.967.967 0 015 15c.283 0 .52.096.713.287.191.192.287.43.287.713v2h12v-2a.97.97 0 01.288-.713A.968.968 0 0119 15a.97.97 0 01.712.287c.192.192.288.43.288.713z" fill="#fff"/></svg><svg width="28" height="28" fill="none" viewBox="-4 -4 28 28" id="ico_download_arrow" x="352" y="28" xmlns="http://www.w3.org/2000/svg"><mask id="bba" style="mask-type:alpha" maskUnits="userSpaceOnUse" x="0" y="0" width="20" height="20"><path fill="#D9D9D9" d="M0 0h20v20H0z"/></mask><g mask="url(#bba)"><mask id="bbb" style="mask-type:alpha" maskUnits="userSpaceOnUse" x="2" y="1" width="16" height="13"><path fill="#D9D9D9" d="M2 1h16v13H2z"/></mask><g mask="url(#bbb)"><path d="M10.588 10.15l1.875-1.875a.93.93 0 01.712-.288 1.024 1.024 0 011 1.013.916.916 0 01-.287.7l-3.6 3.6c-.1.1-.209.17-.325.212a1.108 1.108 0 01-.375.063 1.07 1.07 0 01-.375-.063.878.878 0 01-.325-.212l-3.6-3.6A.916.916 0 015 9a1.022 1.022 0 011-1.013.93.93 0 01.713.288l1.875 1.875V3c0-.283.096-.52.287-.713A.968.968 0 019.588 2a.97.97 0 01.712.287c.192.192.288.43.288.713v7.15z" fill="#fff"/></g></g></svg><svg width="32" height="32" fill="none" viewBox="-4 -4 32 32" id="ico_download_arrow_top_right" x="133" y="283" xmlns="http://www.w3.org/2000/svg"><path d="M15.6 8H8a.968.968 0 01-.713-.287A.968.968 0 017 7c0-.283.096-.52.287-.713A.968.968 0 018 6h10a.97.97 0 01.712.287c.192.192.288.43.288.713v10c0 .283-.096.52-.288.712A.968.968 0 0118 18a.968.968 0 01-.712-.288A.968.968 0 0117 17V9.4l-8.9 8.9a.948.948 0 01-.7.275.948.948 0 01-.7-.275.948.948 0 01-.275-.7.95.95 0 01.275-.7L15.6 8z" fill="#fff"/></svg><svg width="28" height="28" fill="none" viewBox="-4 -4 28 28" id="ico_download_bottom" x="352" y="56" xmlns="http://www.w3.org/2000/svg"><mask id="bda" style="mask-type:alpha" maskUnits="userSpaceOnUse" x="0" y="0" width="20" height="20"><path fill="#D9D9D9" d="M0 0h20v20H0z"/></mask><g mask="url(#bda)"><path d="M18 15v2c0 .55-.196 1.02-.587 1.413A1.926 1.926 0 0116 19H4c-.55 0-1.02-.196-1.413-.587A1.926 1.926 0 012 17v-2a.97.97 0 01.288-.713A.967.967 0 013 14a.97.97 0 01.712.287c.192.192.288.43.288.713v2h12v-2a.97.97 0 01.288-.713A.968.968 0 0117 14a.97.97 0 01.712.287c.192.192.288.43.288.713z" fill="#fff"/></g></svg><svg width="28" height="28" fill="none" viewBox="-4 -4 28 28" id="ico_error_mark" x="352" y="84" xmlns="http://www.w3.org/2000/svg"><g clip-path="url(#beclip0_4947_4873)"><path d="M10 14.167c.236 0 .434-.08.594-.24.16-.16.24-.357.24-.594a.806.806 0 00-.24-.593.806.806 0 00-.594-.24.806.806 0 00-.594.24.806.806 0 00-.24.593c0 .236.08.434.24.594.16.16.358.24.594.24zm-.834-3.334h1.667v-5H9.166v5zm.834 7.5a8.115 8.115 0 01-3.25-.656 8.416 8.416 0 01-2.646-1.781 8.415 8.415 0 01-1.781-2.646A8.115 8.115 0 011.667 10c0-1.153.218-2.236.656-3.25a8.415 8.415 0 011.781-2.646A8.415 8.415 0 016.75 2.323 8.115 8.115 0 0110 1.667c1.153 0 2.236.218 3.25.656a8.416 8.416 0 012.646 1.781 8.415 8.415 0 011.78 2.646 8.115 8.115 0 01.657 3.25 8.115 8.115 0 01-.656 3.25 8.415 8.415 0 01-1.781 2.646 8.416 8.416 0 01-2.646 1.781 8.114 8.114 0 01-3.25.656zm0-1.666c1.86 0 3.437-.646 4.729-1.938 1.292-1.291 1.938-2.868 1.938-4.729 0-1.861-.646-3.437-1.938-4.73-1.292-1.29-2.868-1.937-4.73-1.937-1.86 0-3.437.646-4.728 1.938C3.979 6.563 3.333 8.139 3.333 10c0 1.86.646 3.437 1.938 4.728C6.562 16.02 8.139 16.666 10 16.666z" fill="red"/></g><defs><clipPath id="beclip0_4947_4873"><path fill="#fff" d="M0 0h20v20H0z"/></clipPath></defs></svg><svg width="56" height="56" fill="none" viewBox="-4 -4 56 56" id="ico_foreign_customer" x="169" y="176" xmlns="http://www.w3.org/2000/svg"><path d="M32.398 37.582c8.153 0 14.791-6.638 14.791-14.791S40.551 8 32.4 8c-8.154 0-14.792 6.638-14.792 14.79 0 8.154 6.638 14.792 14.791 14.792z" fill="#82DC28"/><circle cx="19.678" cy="17.407" r="7.907" stroke="#000" stroke-width="3"/><path d="M19.678 26.188c-7.291 0-13.42 4.977-15.174 11.72C3.948 40.046 5.79 41.866 8 41.866h23.357c2.209 0 4.052-1.82 3.496-3.958-1.754-6.743-7.883-11.72-15.175-11.72z" stroke="#000" stroke-width="3" stroke-linecap="round"/></svg><svg width="37" height="37" fill="none" viewBox="-4 -4 37 37" id="ico_ham" y="283" xmlns="http://www.w3.org/2000/svg"><path d="M3.61 9.958h21.75M3.61 19.02h21.75" stroke="#131518" stroke-width="3" stroke-linecap="square" stroke-linejoin="round"/></svg><svg width="19" height="18" fill="none" viewBox="-4 -4 19 18" id="ico_link" x="225" y="214" xmlns="http://www.w3.org/2000/svg"><path d="M7.678 1.502H1.634a.794.794 0 01-.567-.215A.706.706 0 01.84.752c0-.213.076-.391.228-.535a.794.794 0 01.567-.216h7.952c.226 0 .415.072.567.216a.706.706 0 01.229.535v7.504a.71.71 0 01-.229.535.794.794 0 01-.567.215.794.794 0 01-.566-.215.706.706 0 01-.229-.535V2.553L1.714 9.232a.779.779 0 01-.557.206.779.779 0 01-.557-.206.69.69 0 01-.218-.526.69.69 0 01.218-.525l7.078-6.679z" fill="#25503C"/></svg><svg width="32" height="32" fill="none" viewBox="-4 -4 32 32" id="ico_link_24" x="165" y="283" xmlns="http://www.w3.org/2000/svg"><path d="M15.833 19a2.124 2.124 0 01-1.534-.613 1.994 1.994 0 01-.614-1.74c.012-.088.03-.167.054-.237l-5.092-2.87a2.393 2.393 0 01-.686.411c-.253.1-.517.149-.794.149a2.124 2.124 0 01-1.535-.612A1.994 1.994 0 015 12c0-.583.21-1.08.632-1.488A2.124 2.124 0 017.167 9.9c.277 0 .541.05.794.149.253.099.482.236.686.411l5.092-2.87a1.255 1.255 0 01-.054-.236 1.994 1.994 0 01.614-1.741A2.124 2.124 0 0115.833 5c.602 0 1.114.204 1.535.612.421.409.632.905.632 1.488s-.21 1.08-.632 1.488a2.124 2.124 0 01-1.535.612c-.277 0-.541-.05-.794-.149a2.391 2.391 0 01-.686-.411L9.26 11.51c.024.07.042.149.054.236a1.862 1.862 0 010 .508c-.012.087-.03.166-.054.236l5.092 2.87a2.39 2.39 0 01.686-.411c.253-.1.518-.149.794-.149.602 0 1.114.204 1.535.612.421.409.632.905.632 1.488s-.21 1.08-.632 1.488a2.124 2.124 0 01-1.535.612zm0-11.2a.71.71 0 00.515-.201.667.667 0 00.208-.499.667.667 0 00-.208-.499.71.71 0 00-.515-.201.71.71 0 00-.514.201.667.667 0 00-.208.499c0 .198.07.365.208.499a.71.71 0 00.514.201zm-8.666 4.9a.71.71 0 00.514-.201A.667.667 0 007.89 12a.667.667 0 00-.208-.499.71.71 0 00-.514-.201.71.71 0 00-.515.201.667.667 0 00-.208.499c0 .198.07.365.208.499a.71.71 0 00.515.201zm8.666 4.9a.71.71 0 00.515-.201.667.667 0 00.208-.499.667.667 0 00-.208-.499.71.71 0 00-.515-.201.71.71 0 00-.514.201.667.667 0 00-.208.499c0 .198.07.365.208.499a.71.71 0 00.514.201z" fill="#000" stroke="#000" stroke-width="1.2"/><circle cx="7.15" cy="12" r="1" fill="#fff"/><circle cx="15.82" cy="7.1" r="1" fill="#fff"/><circle cx="15.8" cy="16.9" r="1" fill="#fff"/></svg><svg width="32" height="32" fill="none" viewBox="-4 -4 32 32" id="ico_location_gray" x="197" y="283" xmlns="http://www.w3.org/2000/svg"><path d="M12 12c.55 0 1.02-.196 1.412-.588.392-.391.588-.862.588-1.412 0-.55-.196-1.02-.588-1.412A1.926 1.926 0 0012 8c-.55 0-1.02.196-1.412.588A1.926 1.926 0 0010 10c0 .55.196 1.02.588 1.412.391.392.862.588 1.412.588zm0 7.35c2.033-1.867 3.542-3.563 4.525-5.088C17.508 12.738 18 11.383 18 10.2c0-1.817-.58-3.304-1.738-4.462C15.104 4.579 13.683 4 12 4c-1.683 0-3.104.58-4.263 1.737C6.58 6.896 6 8.383 6 10.2c0 1.183.492 2.538 1.475 4.063.983 1.524 2.492 3.22 4.525 5.087zM12 22c-2.683-2.283-4.688-4.404-6.013-6.363C4.662 13.68 4 11.867 4 10.2c0-2.5.804-4.492 2.412-5.975C8.021 2.742 9.883 2 12 2s3.98.742 5.587 2.225C19.197 5.708 20 7.7 20 10.2c0 1.667-.663 3.48-1.988 5.438C16.688 17.595 14.683 19.716 12 22z" fill="#5F6368"/></svg><svg width="56" height="56" fill="none" viewBox="-4 -4 56 56" id="ico_location_store" x="264" xmlns="http://www.w3.org/2000/svg"><rect x="10.23" y="2" width="32.311" height="32.311" rx="16.155" fill="#82DC28"/><path d="M20.937 46.15h.022a5.665 5.665 0 004.226-1.997l-1.142-.973 1.14.975c.75-.878 1.448-1.692 2.1-2.45h0l.12-.141c3.305-3.852 5.432-6.33 6.799-8.586h0c1.496-2.47 2.085-4.68 2.085-7.697 0-8.578-6.885-15.59-15.393-15.59-8.51 0-15.394 7.012-15.394 15.59 0 3.234 1.116 6.402 3.257 9.648h0c1.78 2.698 4.071 5.174 6.191 7.466l.031.033s0 0 0 0l.149.16c.52.565 1.048 1.135 1.549 1.69a5.668 5.668 0 004.2 1.871h.06z" stroke="#000" stroke-width="3"/><path d="M20.894 30.473a5.963 5.963 0 005.954-5.954 5.962 5.962 0 00-5.954-5.954 5.962 5.962 0 00-5.954 5.954 5.962 5.962 0 005.954 5.954z" stroke="#000" stroke-width="3" stroke-miterlimit="10"/></svg><svg width="57" height="57" fill="none" viewBox="-4 -4 57 57" id="ico_logistics_network" x="176" y="88" xmlns="http://www.w3.org/2000/svg"><g clip-path="url(#blclip0_3454_12479)"><path d="M32.98 21.866a4 4 0 010 5.51L17.793 43.362c-2.814 2.963-7.736.297-6.791-3.679l3.357-14.137a4.001 4.001 0 000-1.85L11.002 9.56c-.945-3.975 3.977-6.642 6.791-3.68L32.98 21.867z" fill="#82DC28"/><rect x="45.16" y="18.008" width="13.963" height="41.25" rx="6.981" transform="rotate(90 45.16 18.008)" stroke="#000" stroke-width="3"/></g><defs><clipPath id="blclip0_3454_12479"><path fill="#fff" transform="rotate(90 24.27 24.39)" d="M0 0h48v48H0z"/></clipPath></defs></svg><svg width="32" height="32" fill="none" viewBox="-4 -4 32 32" id="ico_mail" x="229" y="283" xmlns="http://www.w3.org/2000/svg"><path d="M4 20.002c-.55 0-1.02-.196-1.413-.587A1.926 1.926 0 012 18.002v-12c0-.55.196-1.02.587-1.413A1.926 1.926 0 014 4.002h16c.55 0 1.02.196 1.413.587.391.392.587.863.587 1.413v12c0 .55-.196 1.02-.587 1.413a1.926 1.926 0 01-1.413.587H4zm16-12l-7.475 4.675a1.04 1.04 0 01-.525.15 1.04 1.04 0 01-.525-.15L4 8.002v10h16v-10zm-8 3l8-5H4l8 5zm-8-2.75V6.777v.025-.013 1.463z" fill="#5EBE01"/></svg><svg width="29" height="29" fill="none" viewBox="-4 -4 29 29" id="ico_minus" x="213" y="145" xmlns="http://www.w3.org/2000/svg"><rect x="16" y="9.5" width="2" height="11" rx="1" transform="rotate(90 16 9.5)" fill="#000"/><circle cx="10.5" cy="10.5" r="9.5" stroke="#000" stroke-width="2"/></svg><svg width="18" height="18" fill="none" viewBox="-4 -4 18 18" id="ico_more" x="268" y="320" xmlns="http://www.w3.org/2000/svg"><path d="M7.265 1.583H1.25a.766.766 0 01-.564-.227.766.766 0 01-.228-.564c0-.225.076-.413.228-.564A.766.766 0 011.249 0h7.916c.225 0 .413.076.564.228.152.151.228.34.228.564v7.916a.766.766 0 01-.228.564.766.766 0 01-.564.228.766.766 0 01-.564-.228.766.766 0 01-.227-.564V2.692L1.328 9.738a.75.75 0 01-.554.217.75.75 0 01-.554-.217.75.75 0 01-.218-.555.75.75 0 01.218-.554l7.045-7.046z" fill="#000"/></svg><svg width="21" height="21" fill="none" viewBox="-4 -4 21 21" id="ico_more_13" x="293" y="283" xmlns="http://www.w3.org/2000/svg"><path d="M9.6 2H2a.968.968 0 01-.712-.288A.968.968 0 011 1a.97.97 0 01.288-.713A.968.968 0 012 0h10c.283 0 .52.096.713.287.191.192.287.43.287.713v10c0 .283-.096.52-.287.713A.968.968 0 0112 12a.968.968 0 01-.713-.287A.968.968 0 0111 11V3.4l-8.9 8.9a.948.948 0 01-.7.275.948.948 0 01-.7-.275.948.948 0 01-.275-.7.95.95 0 01.275-.7L9.6 2z" fill="#fff"/></svg><svg width="16" height="16" fill="none" viewBox="-4 -4 16 16" id="ico_more_gray" x="301" y="214" xmlns="http://www.w3.org/2000/svg"><path d="M5.837 1.272H1.002a.616.616 0 01-.453-.183.616.616 0 01-.183-.453c0-.18.06-.331.183-.453A.616.616 0 011.002 0h6.362c.18 0 .331.061.453.183A.616.616 0 018 .636v6.362c0 .18-.061.331-.183.453a.616.616 0 01-.453.183.616.616 0 01-.453-.183.616.616 0 01-.183-.453V2.163L1.066 7.825A.603.603 0 01.62 8a.603.603 0 01-.445-.175A.603.603 0 010 7.38c0-.18.058-.329.175-.446l5.662-5.662z" fill="#6F7880"/></svg><svg width="32" height="32" fill="none" viewBox="-4 -4 32 32" id="ico_more_white" x="261" y="283" xmlns="http://www.w3.org/2000/svg"><path d="M15.6 8H8a.968.968 0 01-.713-.287A.968.968 0 017 7c0-.283.096-.52.287-.713A.968.968 0 018 6h10a.97.97 0 01.712.287c.192.192.288.43.288.713v10c0 .283-.096.52-.288.712A.968.968 0 0118 18a.968.968 0 01-.712-.288A.968.968 0 0117 17V9.4l-8.9 8.9a.948.948 0 01-.7.275.948.948 0 01-.7-.275.948.948 0 01-.275-.7.95.95 0 01.275-.7L15.6 8z" fill="#fff"/></svg><svg width="28" height="28" fill="none" viewBox="-4 -4 28 28" id="ico_news_copy" x="352" y="112" xmlns="http://www.w3.org/2000/svg"><mask id="bsa" style="mask-type:alpha" maskUnits="userSpaceOnUse" x="0" y="0" width="20" height="20"><path fill="#D9D9D9" d="M0 0h20v20H0z"/></mask><g mask="url(#bsa)"><path d="M2.5 4.344h-.1v12.6c0 .403.15.753.442 1.047.294.293.644.442 1.047.442h10.1v-1.589h-10v-12.5H2.5zm3.12 10.869c.294.293.644.443 1.047.443h8.61c.403 0 .754-.15 1.047-.443.294-.293.443-.644.443-1.046V3.056c0-.403-.15-.753-.443-1.047a1.434 1.434 0 00-1.046-.442H6.667c-.403 0-.753.149-1.047.442a1.434 1.434 0 00-.442 1.046v11.112c0 .402.149.753.442 1.046zm9.558-12.057v10.91H6.767V3.157h8.41z" fill="#51585F" stroke="#51585F" stroke-width=".2"/></g></svg><svg width="28" height="28" fill="none" viewBox="-4 -4 28 28" id="ico_news_download" x="352" y="140" xmlns="http://www.w3.org/2000/svg"><mask id="bta" style="mask-type:alpha" maskUnits="userSpaceOnUse" x="0" y="0" width="20" height="20"><path fill="red" d="M0 0h20v20H0z"/></mask><g mask="url(#bta)"><path d="M11 10.15l1.875-1.875a.93.93 0 01.713-.288A1.022 1.022 0 0114.587 9a.916.916 0 01-.287.7l-3.6 3.6c-.1.1-.208.17-.325.212a1.106 1.106 0 01-.375.063c-.133 0-.258-.02-.375-.063A.878.878 0 019.3 13.3L5.7 9.7a.916.916 0 01-.288-.7 1.024 1.024 0 011-1.013.93.93 0 01.713.288L9 10.15V3a.97.97 0 01.287-.712A.968.968 0 0110 2a.97.97 0 01.713.288A.968.968 0 0111 3v7.15zM18 14v2c0 .55-.196 1.02-.587 1.413A1.926 1.926 0 0116 18H4c-.55 0-1.02-.196-1.413-.587A1.926 1.926 0 012 16v-2a.97.97 0 01.288-.713A.967.967 0 013 13a.97.97 0 01.712.287c.192.192.288.43.288.713v2h12v-2a.97.97 0 01.288-.713A.968.968 0 0117 13a.97.97 0 01.712.287c.192.192.288.43.288.713z" fill="#51585F"/></g></svg><svg width="56" height="56" fill="none" viewBox="-4 -4 56 56" id="ico_notebook" x="264" y="56" xmlns="http://www.w3.org/2000/svg"><rect x="19.77" y="1.846" width="25.239" height="25.239" rx="12.619" fill="#82DC28"/><rect x="4" y="12.359" width="29.436" height="33.641" rx="4" stroke="#000" stroke-width="3"/><rect x="9.256" y="31.281" width="18.923" height="3.154" rx="1.577" fill="#000"/><rect x="9.256" y="37.59" width="18.923" height="3.154" rx="1.577" fill="#000"/></svg><svg width="32" height="32" fill="none" viewBox="-4 -4 32 32" id="ico_notice_green" x="320" xmlns="http://www.w3.org/2000/svg"><path d="M12 17a.97.97 0 00.713-.288A.968.968 0 0013 16a.968.968 0 00-.287-.713A.968.968 0 0012 15a.968.968 0 00-.713.287A.968.968 0 0011 16c0 .283.096.52.287.712.192.192.43.288.713.288zm-1-4h2V7h-2v6zm1 9a9.738 9.738 0 01-3.9-.788 10.099 10.099 0 01-3.175-2.137c-.9-.9-1.612-1.958-2.137-3.175A9.738 9.738 0 012 12a9.74 9.74 0 01.788-3.9 10.099 10.099 0 012.137-3.175c.9-.9 1.958-1.612 3.175-2.137A9.738 9.738 0 0112 2a9.74 9.74 0 013.9.788 10.098 10.098 0 013.175 2.137c.9.9 1.613 1.958 2.137 3.175A9.738 9.738 0 0122 12a9.738 9.738 0 01-.788 3.9 10.098 10.098 0 01-2.137 3.175c-.9.9-1.958 1.613-3.175 2.137A9.738 9.738 0 0112 22zm0-2c2.233 0 4.125-.775 5.675-2.325C19.225 16.125 20 14.233 20 12c0-2.233-.775-4.125-2.325-5.675C16.125 4.775 14.233 4 12 4c-2.233 0-4.125.775-5.675 2.325C4.775 7.875 4 9.767 4 12c0 2.233.775 4.125 2.325 5.675C7.875 19.225 9.767 20 12 20z" fill="#5EBE01"/></svg><svg width="40" height="40" fill="none" viewBox="-4 -4 40 40" id="ico_outlink" x="176" y="233" xmlns="http://www.w3.org/2000/svg"><circle cx="16" cy="16" r="15" stroke="#98A1A8" stroke-width="2"/><path d="M18.296 12.59h-6.043a.77.77 0 01-.567-.228.77.77 0 01-.229-.567.77.77 0 01.229-.566.77.77 0 01.566-.229h7.953a.77.77 0 01.566.229.77.77 0 01.229.566v7.953a.77.77 0 01-.229.566.77.77 0 01-.566.229.77.77 0 01-.567-.229.77.77 0 01-.229-.566v-6.044l-7.077 7.077a.754.754 0 01-.557.22.754.754 0 01-.556-.22.754.754 0 01-.219-.556c0-.226.073-.411.219-.557l7.077-7.077z" fill="#98A1A8"/></svg><svg width="19" height="18" fill="none" viewBox="-4 -4 19 18" id="ico_outlink_back_2" x="244" y="214" xmlns="http://www.w3.org/2000/svg"><path d="M7.547 1.676H1.805a.754.754 0 01-.538-.205.67.67 0 01-.217-.508.67.67 0 01.217-.508.754.754 0 01.538-.205H9.36c.214 0 .393.068.538.205a.67.67 0 01.217.508v7.129a.67.67 0 01-.217.508.754.754 0 01-.538.205.754.754 0 01-.538-.205.67.67 0 01-.218-.508V2.674L1.881 9.019a.74.74 0 01-.53.196.74.74 0 01-.528-.196.656.656 0 01-.208-.5c0-.201.07-.368.208-.498l6.724-6.345z" fill="#000"/></svg><svg width="40" height="40" fill="none" viewBox="-4 -4 40 40" id="ico_outlink_black" x="216" y="233" xmlns="http://www.w3.org/2000/svg"><circle cx="16" cy="16" r="15" stroke="#000" stroke-width="2"/><path d="M18.296 12.59h-6.043a.77.77 0 01-.567-.228.77.77 0 01-.229-.567.77.77 0 01.229-.566.77.77 0 01.566-.229h7.953a.77.77 0 01.566.229.77.77 0 01.229.566v7.952a.77.77 0 01-.229.567.77.77 0 01-.566.229.77.77 0 01-.567-.229.77.77 0 01-.229-.567v-6.043l-7.077 7.077a.754.754 0 01-.557.219.754.754 0 01-.556-.219.754.754 0 01-.219-.556c0-.226.073-.411.219-.557l7.077-7.077z" fill="#000"/></svg><svg width="22" height="22" fill="none" viewBox="-4 -4 22 22" id="ico_outlink_btn_sitemap" x="242" y="145" xmlns="http://www.w3.org/2000/svg"><path d="M10.215 2.227H1.753c-.315 0-.58-.107-.793-.32a1.077 1.077 0 01-.32-.794C.64.798.747.533.96.32A1.08 1.08 0 011.753 0h11.134c.315 0 .58.107.793.32.213.213.32.478.32.793v11.133c0 .316-.107.58-.32.794-.213.213-.478.32-.793.32a1.08 1.08 0 01-.794-.32 1.078 1.078 0 01-.32-.793V3.784l-9.908 9.909a1.056 1.056 0 01-.78.306c-.315 0-.575-.102-.779-.306a1.056 1.056 0 01-.306-.78c0-.315.102-.575.306-.779l9.909-9.908z" fill="#000"/></svg><svg width="18" height="18" fill="none" viewBox="-4 -4 18 18" id="ico_outlink_gnb" x="286" y="320" xmlns="http://www.w3.org/2000/svg"><path d="M7.296 1.59H1.252a.77.77 0 01-.566-.228.77.77 0 01-.229-.567A.77.77 0 01.686.23.77.77 0 011.252 0h7.953a.77.77 0 01.566.229.77.77 0 01.229.566v7.953a.77.77 0 01-.229.566.77.77 0 01-.566.229.77.77 0 01-.567-.229.77.77 0 01-.228-.566V2.704L1.332 9.78a.754.754 0 01-.557.22.754.754 0 01-.556-.219A.754.754 0 010 9.225c0-.226.073-.411.219-.557L7.296 1.59z" fill="#000"/></svg><svg width="18" height="18" fill="none" viewBox="-4 -4 18 18" id="ico_outlink_gray_8x8" x="304" y="320" xmlns="http://www.w3.org/2000/svg"><path d="M7.263 1.568H1.247a.77.77 0 01-.564-.226.755.755 0 01-.228-.558c0-.222.076-.408.228-.559A.77.77 0 011.247 0h7.916a.77.77 0 01.564.225c.152.15.228.337.228.559v7.84a.755.755 0 01-.228.558.77.77 0 01-.564.225.77.77 0 01-.564-.225.755.755 0 01-.227-.559V2.665L1.326 9.642a.755.755 0 01-.554.216A.74.74 0 010 9.094a.74.74 0 01.218-.549l7.045-6.977z" fill="#000" fill-opacity=".6"/></svg><svg width="28" height="26" fill="none" viewBox="-4 -4 28 26" id="ico_pagination_next" x="352" y="168" xmlns="http://www.w3.org/2000/svg"><path d="M.264 10.355h9.771c2.729 0 3.835-.995 6.02-.995v.106c-4.222 1.777-5.54 3.755-6.923 6.05l2.461 2.285c2.065-4.474 3.955-6.251 7.55-7.933V8.165c-3.595-1.67-5.485-3.448-7.55-7.964L9.141 2.528c1.383 2.284 2.7 4.273 6.923 6.05v.105c-2.185 0-3.263-.994-6.02-.994H.264v2.665z" fill="#000"/></svg><svg width="28" height="26" fill="none" viewBox="-4 -4 28 26" id="ico_pagination_prev" x="352" y="194" xmlns="http://www.w3.org/2000/svg"><path d="M19.736 7.645h-9.77c-2.73 0-3.836.995-6.02.995v-.106c4.222-1.777 5.54-3.755 6.922-6.05L8.409.199C6.341 4.673 4.452 6.45.857 8.132v1.703c3.595 1.67 5.484 3.448 7.55 7.964l2.451-2.327c-1.382-2.284-2.7-4.273-6.923-6.05v-.105c2.185 0 3.264.994 6.02.994h9.78V7.646z" fill="#000"/></svg><svg width="32" height="32" fill="none" viewBox="-4 -4 32 32" id="ico_paging_first" x="320" y="32" xmlns="http://www.w3.org/2000/svg"><mask id="cea" style="mask-type:alpha" maskUnits="userSpaceOnUse" x="0" y="0" width="24" height="24"><path transform="matrix(0 -1 -1 0 24 24)" fill="red" d="M0 0h24v24H0z"/></mask><g fill="#3A3E45" mask="url(#cea)"><path d="M12 11.985c0 .123.02.236.062.338a.939.939 0 00.217.308l6.14 6.092a.896.896 0 00.65.277.896.896 0 00.652-.277.9.9 0 00.279-.662.9.9 0 00-.28-.661l-5.456-5.415 5.457-5.416A.881.881 0 0020 5.923a.882.882 0 00-.28-.646.913.913 0 00-.666-.277.913.913 0 00-.666.277l-6.109 6.061a.937.937 0 00-.217.308.897.897 0 00-.062.339z"/><path d="M4 11.985c0 .123.02.236.062.338a.938.938 0 00.217.308l6.14 6.092a.896.896 0 00.65.277.896.896 0 00.652-.277.9.9 0 00.279-.662.9.9 0 00-.28-.661l-5.456-5.415 5.457-5.416A.881.881 0 0012 5.923a.882.882 0 00-.28-.646.913.913 0 00-.666-.277.913.913 0 00-.666.277l-6.109 6.061a.936.936 0 00-.217.308.897.897 0 00-.062.339z"/></g></svg><svg width="32" height="32" fill="none" viewBox="-4 -4 32 32" id="ico_paging_first_disabled" x="320" y="64" xmlns="http://www.w3.org/2000/svg"><mask id="cfa" style="mask-type:alpha" maskUnits="userSpaceOnUse" x="0" y="0" width="24" height="24"><path transform="matrix(0 -1 -1 0 24 24)" fill="red" d="M0 0h24v24H0z"/></mask><g fill="#C9CDD1" mask="url(#cfa)"><path d="M12 11.985c0 .123.02.236.062.338a.939.939 0 00.217.308l6.14 6.092a.896.896 0 00.65.277.896.896 0 00.652-.277.9.9 0 00.279-.662.9.9 0 00-.28-.661l-5.456-5.415 5.457-5.416A.881.881 0 0020 5.923a.882.882 0 00-.28-.646.913.913 0 00-.666-.277.913.913 0 00-.666.277l-6.109 6.061a.937.937 0 00-.217.308.897.897 0 00-.062.339z"/><path d="M4 11.985c0 .123.02.236.062.338a.938.938 0 00.217.308l6.14 6.092a.896.896 0 00.65.277.896.896 0 00.652-.277.9.9 0 00.279-.662.9.9 0 00-.28-.661l-5.456-5.415 5.457-5.416A.881.881 0 0012 5.923a.882.882 0 00-.28-.646.913.913 0 00-.666-.277.913.913 0 00-.666.277l-6.109 6.061a.936.936 0 00-.217.308.897.897 0 00-.062.339z"/></g></svg><svg width="32" height="32" fill="none" viewBox="-4 -4 32 32" id="ico_paging_last" x="320" y="96" xmlns="http://www.w3.org/2000/svg"><mask id="cga" style="mask-type:alpha" maskUnits="userSpaceOnUse" x="0" y="0" width="24" height="24"><path transform="matrix(0 1 1 0 0 0)" fill="red" d="M0 0h24v24H0z"/></mask><g fill="#3A3E45" mask="url(#cga)"><path d="M12 12.015a.898.898 0 00-.062-.338.939.939 0 00-.217-.308L5.58 5.277A.896.896 0 004.931 5a.896.896 0 00-.652.277.9.9 0 00-.279.661.9.9 0 00.28.662l5.456 5.415-5.457 5.416a.882.882 0 00-.279.646.88.88 0 00.28.646.913.913 0 00.666.277c.258 0 .48-.092.666-.277l6.109-6.061a.937.937 0 00.217-.308.897.897 0 00.062-.339z"/><path d="M20 12.015a.898.898 0 00-.062-.338.939.939 0 00-.217-.308l-6.14-6.092a.896.896 0 00-.65-.277.896.896 0 00-.652.277.9.9 0 00-.279.661.9.9 0 00.28.662l5.456 5.415-5.457 5.416a.882.882 0 00-.279.646.88.88 0 00.28.646.913.913 0 00.666.277c.258 0 .48-.092.666-.277l6.109-6.061a.937.937 0 00.217-.308.897.897 0 00.062-.339z"/></g></svg><svg width="32" height="32" fill="none" viewBox="-4 -4 32 32" id="ico_paging_last_disabled" x="320" y="128" xmlns="http://www.w3.org/2000/svg"><mask id="cha" style="mask-type:alpha" maskUnits="userSpaceOnUse" x="0" y="0" width="24" height="24"><path transform="matrix(0 1 1 0 0 0)" fill="red" d="M0 0h24v24H0z"/></mask><g fill="#C9CDD1" mask="url(#cha)"><path d="M12 12.015a.898.898 0 00-.062-.338.939.939 0 00-.217-.308L5.58 5.277A.896.896 0 004.931 5a.896.896 0 00-.652.277.9.9 0 00-.279.661.9.9 0 00.28.662l5.456 5.415-5.457 5.416a.882.882 0 00-.279.646.88.88 0 00.28.646.913.913 0 00.666.277c.258 0 .48-.092.666-.277l6.109-6.061a.937.937 0 00.217-.308.897.897 0 00.062-.339z"/><path d="M20 12.015a.898.898 0 00-.062-.338.939.939 0 00-.217-.308l-6.14-6.092a.896.896 0 00-.65-.277.896.896 0 00-.652.277.9.9 0 00-.279.661.9.9 0 00.28.662l5.456 5.415-5.457 5.416a.882.882 0 00-.279.646.88.88 0 00.28.646.913.913 0 00.666.277c.258 0 .48-.092.666-.277l6.109-6.061a.937.937 0 00.217-.308.897.897 0 00.062-.339z"/></g></svg><svg width="32" height="32" fill="none" viewBox="-4 -4 32 32" id="ico_paging_next" x="320" y="160" xmlns="http://www.w3.org/2000/svg"><mask id="cia" style="mask-type:alpha" maskUnits="userSpaceOnUse" x="0" y="0" width="24" height="24"><path transform="matrix(0 1 1 0 0 0)" fill="red" d="M0 0h24v24H0z"/></mask><g mask="url(#cia)"><path d="M16 12.015a.898.898 0 00-.062-.338.939.939 0 00-.217-.308L9.58 5.277A.896.896 0 008.931 5a.896.896 0 00-.652.277.9.9 0 00-.279.661.9.9 0 00.28.662l5.456 5.415-5.457 5.416a.882.882 0 00-.279.646.88.88 0 00.28.646.913.913 0 00.666.277c.258 0 .48-.092.666-.277l6.109-6.061a.937.937 0 00.217-.308.897.897 0 00.062-.339z" fill="#3A3E45"/></g></svg><svg width="32" height="32" fill="none" viewBox="-4 -4 32 32" id="ico_paging_next_disabled" x="320" y="192" xmlns="http://www.w3.org/2000/svg"><mask id="cja" style="mask-type:alpha" maskUnits="userSpaceOnUse" x="0" y="0" width="24" height="24"><path transform="matrix(0 1 1 0 0 0)" fill="red" d="M0 0h24v24H0z"/></mask><g mask="url(#cja)"><path d="M16 12.015a.898.898 0 00-.062-.338.939.939 0 00-.217-.308L9.58 5.277A.896.896 0 008.931 5a.896.896 0 00-.652.277.9.9 0 00-.279.661.9.9 0 00.28.662l5.456 5.415-5.457 5.416a.882.882 0 00-.279.646.88.88 0 00.28.646.913.913 0 00.666.277c.258 0 .48-.092.666-.277l6.109-6.061a.937.937 0 00.217-.308.897.897 0 00.062-.339z" fill="#C9CDD1"/></g></svg><svg width="32" height="32" fill="none" viewBox="-4 -4 32 32" id="ico_paging_prev" x="320" y="224" xmlns="http://www.w3.org/2000/svg"><mask id="cka" style="mask-type:alpha" maskUnits="userSpaceOnUse" x="0" y="0" width="24" height="24"><path transform="matrix(0 -1 -1 0 24 24)" fill="red" d="M0 0h24v24H0z"/></mask><g mask="url(#cka)"><path d="M8 11.985c0 .123.02.236.062.338a.938.938 0 00.217.308l6.14 6.092a.896.896 0 00.65.277.896.896 0 00.652-.277.9.9 0 00.279-.662.9.9 0 00-.28-.661l-5.456-5.415 5.457-5.416A.881.881 0 0016 5.923a.882.882 0 00-.28-.646.913.913 0 00-.666-.277.913.913 0 00-.666.277l-6.109 6.061a.936.936 0 00-.217.308.897.897 0 00-.062.339z" fill="#3A3E45"/></g></svg><svg width="32" height="32" fill="none" viewBox="-4 -4 32 32" id="ico_paging_prev_disabled" x="320" y="256" xmlns="http://www.w3.org/2000/svg"><mask id="cla" style="mask-type:alpha" maskUnits="userSpaceOnUse" x="0" y="0" width="24" height="24"><path transform="matrix(0 -1 -1 0 24 24)" fill="red" d="M0 0h24v24H0z"/></mask><g mask="url(#cla)"><path d="M8 11.985c0 .123.02.236.062.338a.938.938 0 00.217.308l6.14 6.092a.896.896 0 00.65.277.896.896 0 00.652-.277.9.9 0 00.279-.662.9.9 0 00-.28-.661l-5.456-5.415 5.457-5.416A.881.881 0 0016 5.923a.882.882 0 00-.28-.646.913.913 0 00-.666-.277.913.913 0 00-.666.277l-6.109 6.061a.936.936 0 00-.217.308.897.897 0 00-.062.339z" fill="#C9CDD1"/></g></svg><svg width="28" height="28" fill="none" viewBox="-4 -4 28 28" id="ico_pin" x="352" y="220" xmlns="http://www.w3.org/2000/svg"><mask id="cma" style="mask-type:alpha" maskUnits="userSpaceOnUse" x="0" y="0" width="20" height="20"><path fill="red" d="M0 0h20v20H0z"/></mask><g mask="url(#cma)" fill="#25503C"><path d="M11.054 17.026l-4.042-4.041-4.041-4.042a1.022 1.022 0 01.32-1.661l5.375-2.304a1.021 1.021 0 00.547-.56l1.31-3.276a1.022 1.022 0 011.671-.343l7.004 7.004a1.02 1.02 0 01-.343 1.67l-3.276 1.311a1.022 1.022 0 00-.56.547l-2.304 5.375a1.021 1.021 0 01-1.661.32z"/><rect x="7.348" y="11.255" width="1.962" height="9.685" rx=".981" transform="rotate(45 7.348 11.255)"/></g></svg><svg width="29" height="29" fill="none" viewBox="-4 -4 29 29" id="ico_plus" x="64" y="320" xmlns="http://www.w3.org/2000/svg"><rect x="9.5" y="5" width="2" height="11" rx="1" fill="#000"/><rect x="16" y="9.5" width="2" height="11" rx="1" transform="rotate(90 16 9.5)" fill="#000"/><circle cx="10.5" cy="10.5" r="9.5" stroke="#000" stroke-width="2"/></svg><svg width="32" height="32" fill="none" viewBox="-4 -4 32 32" id="ico_popup_checkbox" x="320" y="288" xmlns="http://www.w3.org/2000/svg"><mask id="coa" style="mask-type:alpha" maskUnits="userSpaceOnUse" x="0" y="0" width="24" height="24"><path fill="#D9D9D9" d="M0 0h24v24H0z"/></mask><g mask="url(#coa)"><circle cx="12" cy="12" r="12" fill="#E5E7EA"/><path d="M7.063 12.169l3.913 3.913m6.088-6.087l-6.087 6.087" stroke="#98A1A8" stroke-width="3" stroke-linecap="round" stroke-linejoin="round"/></g></svg><svg width="32" height="32" fill="none" viewBox="-4 -4 32 32" id="ico_popup_checkbox_checked" y="320" xmlns="http://www.w3.org/2000/svg"><mask id="cpa" style="mask-type:alpha" maskUnits="userSpaceOnUse" x="0" y="0" width="24" height="24"><path fill="#D9D9D9" d="M0 0h24v24H0z"/></mask><g mask="url(#cpa)"><circle cx="12" cy="12" r="12" fill="#82DC27"/><path d="M7.063 12.169l3.913 3.913m6.088-6.087l-6.087 6.087" stroke="#fff" stroke-width="3" stroke-linecap="round" stroke-linejoin="round"/></g></svg><svg width="56" height="56" fill="none" viewBox="-4 -4 56 56" id="ico_popup_close" x="264" y="112" xmlns="http://www.w3.org/2000/svg"><mask id="cqa" style="mask-type:alpha" maskUnits="userSpaceOnUse" x="0" y="0" width="48" height="48"><path fill="#D9D9D9" d="M0 0h48v48H0z"/></mask><g mask="url(#cqa)" stroke="#fff" stroke-width="2"><circle cx="24" cy="24" r="23"/><path d="M16 16l16 16m0-16L16 32" stroke-linecap="round" stroke-linejoin="round"/></g></svg><svg width="57" height="57" fill="none" viewBox="-4 -4 57 57" id="ico_product_type" y="176" xmlns="http://www.w3.org/2000/svg"><rect x="11.352" y="6" width="26.327" height="26.327" rx="13.164" fill="#82DC28"/><rect x="5.66" y="17.385" width="37" height="25.9" rx="4" stroke="#000" stroke-width="3"/><rect x="15.621" y="35.174" width="17.077" height="2.846" rx="1.423" fill="#000"/></svg><svg width="56" height="46" fill="none" viewBox="-4 -4 56 46" id="ico_quotation" x="264" y="168" xmlns="http://www.w3.org/2000/svg"><path d="M10.8 37.1c-2.867 0-5.3-1-7.3-3-2-2.067-3-4.667-3-7.8 0-3.667 1.467-7.833 4.4-12.5C7.833 9.133 12.433 4.6 18.7.2l2.4 8.7c-3 3.8-5.033 7.1-6.1 9.9l5.8 8.7c0 1.533-.433 3.067-1.3 4.6-.8 1.467-1.967 2.667-3.5 3.6-1.533.933-3.267 1.4-5.2 1.4zm26.2 0c-2.867 0-5.3-1-7.3-3-2-2.067-3-4.667-3-7.8 0-3.667 1.467-7.833 4.4-12.5C34.033 9.133 38.633 4.6 44.9.2l2.4 8.7c-3 3.8-5.033 7.1-6.1 9.9l5.8 8.7c0 1.533-.433 3.067-1.3 4.6-.8 1.467-1.967 2.667-3.5 3.6-1.533.933-3.267 1.4-5.2 1.4z" fill="#82DC27"/></svg><svg width="37" height="31" fill="none" viewBox="-4 -4 37 31" id="ico_quotation_white" x="176" y="145" xmlns="http://www.w3.org/2000/svg"><path d="M6.48 22.86c-1.72 0-3.18-.6-4.38-1.8C.9 19.82.3 18.26.3 16.38c0-2.2.88-4.7 2.64-7.5C4.7 6.08 7.46 3.36 11.22.72l1.44 5.22C10.86 8.22 9.64 10.2 9 11.88l3.48 5.22c0 .92-.26 1.84-.78 2.76-.48.88-1.18 1.6-2.1 2.16-.92.56-1.96.84-3.12.84zm15.72 0c-1.72 0-3.18-.6-4.38-1.8-1.2-1.24-1.8-2.8-1.8-4.68 0-2.2.88-4.7 2.64-7.5 1.76-2.8 4.52-5.52 8.28-8.16l1.44 5.22c-1.8 2.28-3.02 4.26-3.66 5.94l3.48 5.22c0 .92-.26 1.84-.78 2.76-.48.88-1.18 1.6-2.1 2.16-.92.56-1.96.84-3.12.84z" fill="#fff"/></svg><svg width="28" height="28" fill="none" viewBox="-4 -4 28 28" id="ico_radio" x="352" y="248" xmlns="http://www.w3.org/2000/svg"><circle cx="10" cy="10" r="9" stroke="#E5E7EA" stroke-width="2"/></svg><svg width="28" height="28" fill="none" viewBox="-4 -4 28 28" id="ico_radio_checked" x="352" y="276" xmlns="http://www.w3.org/2000/svg"><circle cx="10" cy="10" r="10" fill="#7BD908"/><circle cx="10" cy="10" r="4" fill="#fff"/></svg><svg width="22" height="22" fill="none" viewBox="-4 -4 22 22" id="ico_remove_ipt" x="294" y="233" xmlns="http://www.w3.org/2000/svg"><path d="M2 11.883l5-4.941m0 0L12 2M7 6.942L2 2m5 4.942l5 4.941" stroke="#000" stroke-width="2" stroke-linecap="square"/></svg><svg width="25" height="22" fill="none" viewBox="-4 -4 25 22" id="ico_report_tooltip" x="352" y="304" xmlns="http://www.w3.org/2000/svg"><mask id="cxa" fill="#fff"><path d="M6.769 1c.77-1.333 2.694-1.333 3.464 0l5.63 9.75c.769 1.333-.193 3-1.733 3H2.872c-1.54 0-2.502-1.667-1.732-3L6.769 1z"/></mask><path d="M6.769 1c.77-1.333 2.694-1.333 3.464 0l5.63 9.75c.769 1.333-.193 3-1.733 3H2.872c-1.54 0-2.502-1.667-1.732-3L6.769 1z" fill="#F6FFEB"/><path d="M2.872 13.75v-1 1zm-1.732-3l.866.5-.866-.5zm14.722 0l.866-.5-.866.5zm-1.732 3v1-1zM10.233 1l-.866.5.866-.5zM6.769 1L5.903.5l.866.5zm2.598.5l5.629 9.75 1.732-1L11.098.5l-1.731 1zm4.763 11.25H2.872v2H14.13v-2zm-12.124-1.5L7.635 1.5 5.903.5l-5.63 9.75 1.733 1zm.866 1.5a1 1 0 01-.866-1.5l-1.732-1c-1.155 2 .288 4.5 2.598 4.5v-2zm12.124-1.5a1 1 0 01-.866 1.5v2c2.31 0 3.753-2.5 2.598-4.5l-1.732 1zM11.099.5c-1.155-2-4.042-2-5.196 0l1.732 1a1 1 0 011.732 0l1.732-1z" fill="#DBECCA" mask="url(#cxa)"/></svg><svg width="32" height="32" fill="none" viewBox="-4 -4 32 32" id="ico_search_green" x="32" y="320" xmlns="http://www.w3.org/2000/svg"><path d="M19.6 21l-6.3-6.3A6.096 6.096 0 019.5 16c-1.817 0-3.354-.63-4.612-1.887C3.629 12.854 3 11.317 3 9.5c0-1.817.63-3.354 1.888-4.612C6.146 3.629 7.683 3 9.5 3c1.817 0 3.354.63 4.613 1.888C15.37 6.146 16 7.683 16 9.5a6.096 6.096 0 01-1.3 3.8l6.3 6.3-1.4 1.4zM9.5 14c1.25 0 2.313-.438 3.188-1.313C13.562 11.813 14 10.75 14 9.5c0-1.25-.438-2.313-1.313-3.188C11.813 5.438 10.75 5 9.5 5c-1.25 0-2.313.438-3.188 1.313S5 8.25 5 9.5c0 1.25.438 2.313 1.313 3.188C7.188 13.562 8.25 14 9.5 14z" fill="#82DC27"/></svg><svg width="15" height="20" fill="none" viewBox="-4 -4 15 20" id="ico_sitemap_arrow" x="253" y="320" xmlns="http://www.w3.org/2000/svg"><path d="M1.055 11.667L0 10.63l4.89-4.798L0 1.035 1.055 0 7 5.833l-5.945 5.834z" fill="#000"/></svg><svg width="30" height="30" fill="none" viewBox="-4 -4 30 30" id="ico_sitemap_close" x="233" y="88" xmlns="http://www.w3.org/2000/svg"><path d="M3 3l16 16m0-16L3 19" stroke="#131518" stroke-width="3" stroke-linecap="square" stroke-linejoin="round"/></svg><svg width="18" height="18" fill="none" viewBox="-4 -4 18 18" id="ico_sitemap_outlink" x="322" y="320" xmlns="http://www.w3.org/2000/svg"><mask id="dba" style="mask-type:alpha" maskUnits="userSpaceOnUse" x="0" y="0" width="10" height="10"><path fill="red" d="M0 0h10v10H0z"/></mask><g mask="url(#dba)"><path d="M7.067 1.931h-5.44a.693.693 0 01-.51-.205.693.693 0 01-.205-.51c0-.203.068-.373.205-.51A.692.692 0 011.627.5h7.157c.203 0 .373.069.51.206a.693.693 0 01.206.51v7.157a.692.692 0 01-.206.51.692.692 0 01-.51.205.693.693 0 01-.51-.205.693.693 0 01-.205-.51v-5.44l-6.37 6.37a.679.679 0 01-.501.197.679.679 0 01-.501-.197.679.679 0 01-.197-.5c0-.204.066-.37.197-.502l6.37-6.37z" fill="#747D86"/></g></svg></svg>