<?xml version="1.0" encoding="UTF-8"?> <!-- Generator: Adobe Illustrator 24.3.0, SVG Export Plug-In . SVG Version: 6.00 Build 0) --> <svg xmlns="http://www.w3.org/2000/svg" xmlns:xlink="http://www.w3.org/1999/xlink" version="1.1" id="Livello_1" x="0px" y="0px" viewBox="0 0 224.3 275.8" style="enable-background:new 0 0 224.3 275.8;" xml:space="preserve"> <style type="text/css"> .st0{fill:#FFFFFF;} </style> <g> <g> <g> <path d="M74,172.2v-4.7h12.2V72.6H73.7v-4.7h61.9c15.6,0,32,7,32,25.3c0,17.2-21.7,22.2-34.8,23.6v0.3 c21.7,4.1,30.7,12.6,30.7,27.6c0,12.9,0.6,18.6,2.8,20.9c1.1,1.1,4.2,2.3,12,0.6l0.9,3.3c-5,2.7-12.6,4.8-18.3,4.8 c-19,0-25.4-8.6-25.9-32.6c-0.3-18.6-3.6-22.6-16.1-22.6h-6.7v48.4h13v4.7L74,172.2L74,172.2z M112.4,114h6.6 c15.8,0,20.3-2.7,20.3-13.6V85.2c0-7.5,2.5-12.6-15.6-12.6h-11.2L112.4,114L112.4,114z"></path> <path d="M69.6,172.5h-1.6V166H39c-1.1,0-1.6,0.8-1.6,2v4.5h-1.6V168c0-3.2-0.5-6.4-0.7-9.6h32.9v-6.3h1.6L69.6,172.5L69.6,172.5z "></path> <path d="M69,148.8c0.2-3.4-1.4-6.5-3.5-9c-2.1-2.6-4.4-3.8-10.8-4.9c1.7,1.8,3,4.2,3,6.7c0,5.8-4.7,11.4-10.7,11.4 c-7.3,0-11.9-7.4-11.9-14c0-4.6,3.6-13.3,14.9-13.3c6.5,0,12.9,4.2,16.3,9.6c2.9,4.5,3.9,8.7,4,13.6L69,148.8L69,148.8z M41,134.5c-2.7,0-4.4,1.7-4.4,5.5c0,2.6,2.5,4.2,5.4,4.2h8.9c3.2,0,4.9-1.1,4.9-4.2c0-2.5-2.7-5.4-3.8-5.4L41,134.5L41,134.5z"></path> <path d="M69.6,124H65c-2.3-3.1-4.6-6.1-6.9-9.2c-3.9-5.2-6.6-7.6-13.4-7.6c-3.9,0-7.7,2-7.7,6.4c0,1.5,0.6,3.3,1.4,4.6 c0.3,0.5,1.7,2.3,2.4,2.3c0.7,0,0.7-0.9,0.7-1.3c0-2.4,1.1-4.6,3.8-4.6c2.4,0,3.6,1.8,3.6,4c0,2.9-2.4,4.3-5,4.3 c-4.6,0-8.7-4.4-8.7-12.3c0-5.7,2.3-12.2,9.1-12.2c3.7,0,6.2,2.3,8.6,4.9c4,4.6,6.8,10.3,10.3,15.3v-16.5c0-2.4-3.2-1.6-4.8-1.8 v-1.8l11.4,0.5L69.6,124L69.6,124z"></path> <path d="M52.4,67.8c7.8,0,18,5.4,18,13.9s-10.3,13.9-18,13.9c-7.5,0-17.2-5.7-17.2-13.9S44.9,67.8,52.4,67.8z M43.2,76.9 c-5.9,0-6.7,2.2-6.7,4.8c0,2.6,0.8,4.8,6.7,4.8h18.5c5.6,0.1,7.4-1.8,7.4-4.8c0-3-1.8-4.8-7.4-4.8H43.2z"></path> <path d="M173.7,75.8c0-4.4,3.5-7.6,7.7-7.6c4.1,0,7.7,3.2,7.7,7.6c0,4.4-3.5,7.6-7.7,7.6C177.3,83.5,173.7,80.2,173.7,75.8z M181.5,82.2c3.4,0,6.1-2.7,6.1-6.3c0-3.6-2.7-6.3-6.1-6.3c-3.5,0-6.2,2.7-6.2,6.3C175.3,79.5,178,82.2,181.5,82.2z M179.8,80.2 h-1.3v-8.8h3.3c2.1,0,3.1,0.8,3.1,2.5c0,1.6-1,2.2-2.3,2.4l2.5,3.9h-1.5l-2.3-3.8h-1.5V80.2z M181.4,75.3c1.1,0,2.1-0.1,2.1-1.4 c0-1.1-1-1.3-1.9-1.3h-1.8v2.7L181.4,75.3L181.4,75.3z"></path> </g> </g> <rect x="35.4" y="188.1" width="144.7" height="19.9"></rect> <g> <path class="st0" d="M56.3,203.6h-2.1v-9.1h0l-2,9.1H50l-2-9.1h0v9.1h-2.1v-10.9h3.3l1.9,8.6h0l1.9-8.6h3.2L56.3,203.6L56.3,203.6 z"></path> <path class="st0" d="M61.5,203.6h-2.4l3.8-10.9h2.6l3.8,10.9h-2.4l-0.7-2.3h-3.9L61.5,203.6z M62.8,199.5h2.7l-1.3-4.3h0 L62.8,199.5z"></path> <path class="st0" d="M72.2,192.7h4.7c3.6,0,4.3,3.1,4.3,5.2c0,2.3-0.9,5.7-4.4,5.7h-4.6V192.7L72.2,192.7z M74.4,201.7h2.2 c1.8,0,2.4-1.9,2.4-3.7c0-3.2-1.5-3.5-2.5-3.5h-2.1L74.4,201.7L74.4,201.7z"></path> <path class="st0" d="M92.3,194.6h-5.7v2.3h5.2v1.9h-5.2v2.8h5.9v1.9h-8.1v-10.9h7.9L92.3,194.6L92.3,194.6z"></path> <path class="st0" d="M103.5,203.6h-2.2v-10.9h2.2L103.5,203.6L103.5,203.6z"></path> <path class="st0" d="M113.6,192.7h2.1v10.9h-2.2l-4.4-7.8h0v7.8H107v-10.9h2.4l4.2,7.6h0V192.7z"></path> <path class="st0" d="M127,203.6h-2.2v-10.9h2.2V203.6z"></path> <path class="st0" d="M135.1,203.6h-2.2v-9h-3.2v-1.9h8.7v1.9h-3.2L135.1,203.6L135.1,203.6z"></path> <path class="st0" d="M141.3,203.6H139l3.8-10.9h2.6l3.8,10.9h-2.4l-0.7-2.3h-3.9L141.3,203.6z M142.7,199.5h2.7l-1.3-4.3h0 L142.7,199.5z"></path> <path class="st0" d="M154.3,201.6h5.3v2h-7.6v-10.9h2.2V201.6z"></path> <path class="st0" d="M165.9,203.6h-2.2v-4.1l-3.7-6.8h2.6l2.2,4.7l2.1-4.7h2.5l-3.6,6.8L165.9,203.6L165.9,203.6z"></path> </g> </g> </svg> 